# xmcd
#
# Track frame offsets:
#	150
#	22392
#	46965
#	69659
#	90451
#	109353
#	136450
#	152952
#	179465
#	199261
#	221514
#	242588
#	278072
#	297258
#	324337
#
# Disc length: 4877 seconds
# Revision: 0
# Processed by: cddbd v1.5.2PL0 Copyright (c) Steve Scherf et al.
# Submitted via: dBpowerAMP V12.0
#
DISCID=e7130b0f
DTITLE=Bobby Timmons - Sweet and Soulful Sounds and Born to Be Blue
DYEAR=1962
DGENRE=Jazz T-Z
TTITLE0=The Sweetest Sounds
TTITLE1=Turn Left
TTITLE2=God Bless the Child
TTITLE3=You'd Be So Nice to Come Home To
TTITLE4=Another Live One
TTITLE5=Alone Together
TTITLE6=Spring Can Really Hang You Up the Most
TTITLE7=Why Was I Born?
TTITLE8=Born to Be Blue
TTITLE9=Malice Towards None
TTITLE10=Sometimes I Feel Like a Motherless Child
TTITLE11=Know not One
TTITLE12=The Sit-In
TTITLE13=Namely You
TTITLE14=Often Annie
EXTD=
EXTT0=
EXTT1=
EXTT2=
EXTT3=
EXTT4=
EXTT5=
EXTT6=
EXTT7=
EXTT8=
EXTT9=
EXTT10=
EXTT11=
EXTT12=
EXTT13=
EXTT14=
PLAYORDER=
